<?xml version="1.0" encoding="utf-8"?>
<!-- Generator: Adobe Illustrator 15.0.2, SVG Export Plug-In . SVG Version: 6.00 Build 0)  -->
<!DOCTYPE svg PUBLIC "-//W3C//DTD SVG 1.1//EN" "http://www.w3.org/Graphics/SVG/1.1/DTD/svg11.dtd">
<svg version="1.1" id="Layer_1" xmlns="http://www.w3.org/2000/svg" xmlns:xlink="http://www.w3.org/1999/xlink" x="0px" y="0px"
	 width="298.413px" height="116.874px" viewBox="0 0 298.413 116.874" enable-background="new 0 0 298.413 116.874"
	 xml:space="preserve">
<path fill="#E42313" d="M0.039,52.233c-0.846,18.398,12.266,26.434,30.135,26.434c26.75,0,28.865-16.39,28.865-21.571
	c0-12.37-8.881-17.023-19.561-19.878l-18.398-4.546c-6.133-1.48-11.42-4.442-11.42-11.525c0-11.208,9.093-15.014,18.927-15.014
	c10.679,0,20.195,5.815,20.617,17.34h7.191C56.5,8.035,43.392,0,28.482,0C7.229,0,2.471,13.851,2.471,21.252
	c0,11.737,8.142,15.966,17.024,18.187l16.81,4.123c6.979,1.692,15.546,5.075,15.546,13.64c0,10.997-12.055,15.332-19.985,15.332
	c-13.746,0-24.954-4.757-24.637-20.301H0.039z"/>
<path fill-rule="evenodd" clip-rule="evenodd" fill="#E42313" d="M167.392,51.599c0.528-15.332-6.449-30.663-24.001-30.663
	c-17.342,0-24.637,14.485-24.637,28.865c0,15.543,7.295,28.866,24.637,28.866c13.743,0,20.936-7.191,23.789-19.561h-6.66
	c-2.113,8.248-7.402,13.957-17.129,13.957c-12.795,0-17.869-11.737-17.975-21.464H167.392z M125.416,45.995
	c1.056-9.939,7.084-19.455,17.975-19.455c10.784,0,17.022,9.41,17.34,19.455H125.416z"/>
<path fill-rule="evenodd" clip-rule="evenodd" fill="#E42313" d="M264.034,51.599c0.528-15.332-6.45-30.663-24.004-30.663
	c-17.34,0-24.634,14.485-24.634,28.865c0,15.543,7.294,28.866,24.634,28.866c13.747,0,20.937-7.191,23.791-19.561h-6.661
	c-2.113,8.248-7.4,13.957-17.13,13.957c-12.794,0-17.867-11.737-17.974-21.464H264.034z M222.057,45.995
	c1.057-9.939,7.084-19.455,17.974-19.455c10.786,0,17.024,9.41,17.341,19.455H222.057z"/>
<path fill="#E42313" d="M271.453,77.172h6.659V48.096c0-11.313,8.246-20.195,20.301-19.561v-6.661
	c-9.833-0.423-17.233,4.758-20.617,13.534h-0.212V22.615h-6.131V77.172z"/>
<path fill="#E42313" d="M202.729,1.707h-6.66v20.815h-9.518v5.603h9.518V65.45c-0.107,9.305,2.959,12.265,11.841,12.265
	c2.008,0,3.913-0.212,5.921-0.212v-5.708c-1.902,0.21-3.807,0.316-5.709,0.316c-4.759-0.316-5.393-2.856-5.393-7.19V28.125h11.102
	v-5.603h-11.102V1.707z"/>
<rect x="174.818" y="1.708" fill="#E42313" width="6.662" height="75.465"/>
<polygon fill="#E42313" points="73.247,1.707 73.247,33.948 90.31,19.071 111.68,38.409 111.68,77.172 104.954,77.172 
	104.954,40.762 89.928,27.219 73.247,41.729 73.247,77.171 66.586,77.171 66.586,1.707 "/>
<g>
	<path fill="#E42313" d="M3.94,106.168c-0.124,6.086,4.223,7.948,9.646,7.948c3.105,0,7.824-1.697,7.824-6.002
		c0-3.354-3.312-4.679-6.085-5.341l-6.582-1.614c-3.478-0.869-6.665-2.484-6.665-7.12c0-2.897,1.863-8.321,10.184-8.321
		c5.878,0,10.929,3.105,10.929,9.19h-2.815c-0.207-4.471-3.85-6.789-8.072-6.789c-3.85,0-7.41,1.49-7.41,5.878
		c0,2.774,2.029,3.975,4.471,4.513l7.203,1.78c4.181,1.117,7.658,2.98,7.658,7.782c0,2.028-0.828,8.445-11.301,8.445
		c-6.996,0-12.129-3.146-11.798-10.35H3.94z"/>
	<path fill="#E42313" d="M42.607,101.243c-0.705-3.188-2.609-5.134-6.045-5.134c-4.967,0-7.492,4.596-7.492,9.107
		c0,4.513,2.525,9.107,7.492,9.107c3.188,0,5.879-2.566,6.209-6.085h2.608c-0.704,5.175-4.015,8.279-8.817,8.279
		c-6.5,0-10.101-5.175-10.101-11.302s3.601-11.301,10.101-11.301c4.596,0,8.03,2.4,8.651,7.327H42.607z"/>
	<path fill="#E42313" d="M67.571,105.216c0,6.127-3.603,11.302-10.101,11.302c-6.5,0-10.103-5.175-10.103-11.302
		s3.603-11.301,10.103-11.301C63.969,93.916,67.571,99.089,67.571,105.216z M49.977,105.216c0,4.513,2.525,9.107,7.494,9.107
		c4.967,0,7.492-4.595,7.492-9.107c0-4.512-2.525-9.107-7.492-9.107C52.502,96.109,49.977,100.705,49.977,105.216z"/>
	<path fill="#E42313" d="M74.237,94.536h4.347v2.194h-4.347v14.406c0,1.697,0.249,2.69,2.11,2.815c0.745,0,1.49-0.042,2.236-0.125
		v2.236c-0.787,0-1.531,0.082-2.317,0.082c-3.479,0-4.679-1.159-4.638-4.802V96.73h-3.725v-2.194h3.725V88.12h2.608V94.536z"/>
	<path fill="#E42313" d="M81.233,86.339h2.608v29.558h-2.608V86.339z"/>
	<path fill="#E42313" d="M87.898,101.077c0.29-5.009,3.727-7.161,8.652-7.161c3.767,0,7.866,1.117,7.866,6.871v11.343
		c0,1.035,0.496,1.573,1.53,1.573c0.29,0,0.539-0.041,0.828-0.165v2.193c-0.621,0.125-0.992,0.166-1.696,0.166
		c-2.649,0-3.063-1.531-3.063-3.726h-0.082c-1.863,2.773-3.645,4.347-7.783,4.347c-3.975,0-7.162-1.946-7.162-6.251
		c0-5.961,5.837-6.21,11.467-6.872c2.153-0.207,3.354-0.579,3.354-2.897c0-3.52-2.483-4.389-5.588-4.389
		c-3.271,0-5.59,1.49-5.713,4.968H87.898z M101.809,104.223h-0.083c-0.331,0.621-1.491,0.828-2.194,0.952
		c-4.43,0.786-9.936,0.786-9.936,4.926c0,2.608,2.277,4.223,4.762,4.223c4.015,0,7.451-2.525,7.451-6.706V104.223z"/>
	<path fill="#E42313" d="M109.096,94.536h2.608v3.685h0.081c0.994-2.566,3.809-4.305,6.832-4.305c6.002,0,7.824,3.146,7.824,8.237
		v13.744h-2.609v-13.33c0-3.643-1.199-6.458-5.423-6.458c-4.181,0-6.581,3.146-6.705,7.327v12.461h-2.608V94.536z"/>
	<path fill="#E42313" d="M149.459,115.897h-2.402v-4.057h-0.082c-1.117,2.814-4.512,4.678-7.617,4.678
		c-6.499,0-9.604-5.216-9.604-11.302c0-6.085,3.104-11.301,9.604-11.301c3.146,0,6.334,1.614,7.409,4.678h0.084V86.339h2.608
		V115.897z M139.357,114.324c5.505,0,7.493-4.678,7.493-9.107s-1.988-9.107-7.493-9.107c-4.967,0-6.996,4.678-6.996,9.107
		S134.391,114.324,139.357,114.324z"/>
</g>
<rect x="-45.458" y="-45.384" fill="none" width="388.963" height="206.944"/>
</svg>
